<svg xmlns="http://www.w3.org/2000/svg" viewBox="0 0 420 220" width="420" height="220" role="img" aria-label="Seamaster helium escape valve at 10 o'clock: genuine machined vs replica fake/flat">
  <defs><filter id="hvblur" x="-30%" y="-30%" width="160%" height="160%"><feGaussianBlur stdDeviation="1.5"/></filter></defs>
  <rect x="1" y="1" width="418" height="218" rx="14" fill="#0e1530" stroke="#27314f"/>
  <line x1="210" y1="22" x2="210" y2="198" stroke="#27314f" stroke-width="1.5" stroke-dasharray="5 5"/>

  <text x="105" y="34" text-anchor="middle" font-family="system-ui,-apple-system,Segoe UI,Arial,sans-serif" font-size="15" font-weight="700" fill="#34d399">&#10003; mecanizada / machined</text>
  <circle cx="112" cy="122" r="50" fill="#0b1b2e" stroke="#9aa6b8" stroke-width="2.5"/>
  <circle cx="112" cy="122" r="34" fill="none" stroke="#2b3658" stroke-width="1.5"/>
  <g transform="rotate(-45 112 122)">
    <rect x="58" y="116" width="14" height="12" rx="2" fill="#c2ccda" stroke="#5b6577"/>
    <circle cx="64" cy="122" r="9" fill="#aeb9c9" stroke="#5b6577" stroke-width="1.5"/>
    <g stroke="#5b6577" stroke-width="1"><line x1="64" y1="114" x2="64" y2="130"/><line x1="56" y1="122" x2="72" y2="122"/><line x1="58.5" y1="116.5" x2="69.5" y2="127.5"/><line x1="69.5" y1="116.5" x2="58.5" y2="127.5"/></g>
  </g>
  <text x="78" y="74" font-family="system-ui,-apple-system,Segoe UI,Arial,sans-serif" font-size="10" fill="#7dd3fc">10h</text>

  <text x="315" y="34" text-anchor="middle" font-family="system-ui,-apple-system,Segoe UI,Arial,sans-serif" font-size="15" font-weight="700" fill="#f87171">&#10007; falsa / plana</text>
  <circle cx="322" cy="122" r="50" fill="#0b1b2e" stroke="#7f8a9c" stroke-width="2.5"/>
  <circle cx="322" cy="122" r="34" fill="none" stroke="#2b3658" stroke-width="1.5"/>
  <g transform="rotate(-45 322 122)" filter="url(#hvblur)">
    <circle cx="274" cy="122" r="7" fill="#5b6577" stroke="#46505f" stroke-width="1.5"/>
  </g>

  <text x="210" y="212" text-anchor="middle" font-family="system-ui,-apple-system,Segoe UI,Arial,sans-serif" font-size="11" fill="#64748b">helium escape valve @10 / válvula de helio (Diver 300M)</text>
</svg>
