<svg xmlns="http://www.w3.org/2000/svg" viewBox="0 0 420 220" width="420" height="220" role="img" aria-label="Seamaster seahorse medallion: genuine sharp relief vs replica shallow">
  <defs><filter id="shblur" x="-30%" y="-30%" width="160%" height="160%"><feGaussianBlur stdDeviation="1.7"/></filter></defs>
  <rect x="1" y="1" width="418" height="218" rx="14" fill="#0e1530" stroke="#27314f"/>
  <line x1="210" y1="22" x2="210" y2="198" stroke="#27314f" stroke-width="1.5" stroke-dasharray="5 5"/>

  <text x="105" y="34" text-anchor="middle" font-family="system-ui,-apple-system,Segoe UI,Arial,sans-serif" font-size="15" font-weight="700" fill="#34d399">&#10003; relieve nítido / sharp</text>
  <circle cx="105" cy="120" r="56" fill="#0b1b2e" stroke="#9aa6b8" stroke-width="2"/>
  <g transform="translate(0,4)">
    <path d="M96 96 C 118 104, 117 130, 104 136 C 93 141, 96 156, 110 158 C 119 159, 119 167, 110 167" fill="none" stroke="#dbe3ee" stroke-width="11" stroke-linecap="round" stroke-linejoin="round"/>
    <path d="M96 96 L 80 92 L 84 100 Z" fill="#dbe3ee"/>
    <circle cx="99" cy="90" r="3" fill="#dbe3ee"/><circle cx="105" cy="88" r="3" fill="#dbe3ee"/>
    <g fill="#dbe3ee"><path d="M114 108 l8 -3 l-5 7 z"/><path d="M116 122 l8 -2 l-6 7 z"/></g>
    <circle cx="92" cy="97" r="2" fill="#0b1b2e"/>
  </g>

  <text x="315" y="34" text-anchor="middle" font-family="system-ui,-apple-system,Segoe UI,Arial,sans-serif" font-size="15" font-weight="700" fill="#f87171">&#10007; plano / shallow</text>
  <circle cx="315" cy="120" r="56" fill="#0b1b2e" stroke="#7f8a9c" stroke-width="2"/>
  <g transform="translate(210,4)" filter="url(#shblur)" opacity="0.7">
    <path d="M96 96 C 118 104, 117 130, 104 136 C 93 141, 96 156, 110 158 C 119 159, 119 167, 110 167" fill="none" stroke="#8b97ab" stroke-width="11" stroke-linecap="round" stroke-linejoin="round"/>
    <path d="M96 96 L 80 92 L 84 100 Z" fill="#8b97ab"/>
    <circle cx="99" cy="90" r="3" fill="#8b97ab"/><circle cx="105" cy="88" r="3" fill="#8b97ab"/>
  </g>

  <text x="210" y="212" text-anchor="middle" font-family="system-ui,-apple-system,Segoe UI,Arial,sans-serif" font-size="11" fill="#64748b">Seamaster seahorse medallion / caballito de mar (esquema)</text>
</svg>
