<svg xmlns="http://www.w3.org/2000/svg" viewBox="0 0 420 220" width="420" height="220" role="img" aria-label="Seamaster wave dial: genuine fine even laser waves vs replica coarse">
  <defs>
    <clipPath id="dgL"><circle cx="105" cy="120" r="56"/></clipPath>
    <clipPath id="dgR"><circle cx="315" cy="120" r="56"/></clipPath>
    <filter id="wblur" x="-20%" y="-20%" width="140%" height="140%"><feGaussianBlur stdDeviation="1.5"/></filter>
  </defs>
  <rect x="1" y="1" width="418" height="218" rx="14" fill="#0e1530" stroke="#27314f"/>
  <line x1="210" y1="22" x2="210" y2="198" stroke="#27314f" stroke-width="1.5" stroke-dasharray="5 5"/>

  <text x="105" y="34" text-anchor="middle" font-family="system-ui,-apple-system,Segoe UI,Arial,sans-serif" font-size="15" font-weight="700" fill="#34d399">&#10003; fino / fine</text>
  <circle cx="105" cy="120" r="56" fill="#070d20" stroke="#2b3658" stroke-width="2"/>
  <g clip-path="url(#dgL)" fill="none" stroke="#7dd3fc" stroke-width="1.6">
    <path d="M49 80 q14 -7 28 0 t28 0 t28 0 t28 0"/>
    <path d="M49 94 q14 -7 28 0 t28 0 t28 0 t28 0"/>
    <path d="M49 108 q14 -7 28 0 t28 0 t28 0 t28 0"/>
    <path d="M49 122 q14 -7 28 0 t28 0 t28 0 t28 0"/>
    <path d="M49 136 q14 -7 28 0 t28 0 t28 0 t28 0"/>
    <path d="M49 150 q14 -7 28 0 t28 0 t28 0 t28 0"/>
    <path d="M49 164 q14 -7 28 0 t28 0 t28 0 t28 0"/>
  </g>

  <text x="315" y="34" text-anchor="middle" font-family="system-ui,-apple-system,Segoe UI,Arial,sans-serif" font-size="15" font-weight="700" fill="#f87171">&#10007; tosco / coarse</text>
  <circle cx="315" cy="120" r="56" fill="#070d20" stroke="#2b3658" stroke-width="2"/>
  <g clip-path="url(#dgR)" fill="none" stroke="#64748b" stroke-width="3.4" filter="url(#wblur)">
    <path d="M259 90 q14 -12 28 0 t28 0 t28 0 t28 0"/>
    <path d="M259 116 q16 -13 28 0 t28 0 t28 0 t28 0"/>
    <path d="M259 140 q12 -11 28 0 t28 0 t28 0 t28 0"/>
    <path d="M259 162 q15 -12 28 0 t28 0 t28 0 t28 0"/>
  </g>

  <text x="210" y="212" text-anchor="middle" font-family="system-ui,-apple-system,Segoe UI,Arial,sans-serif" font-size="11" fill="#64748b">Seamaster wave dial / esfera de olas (láser)</text>
</svg>
