<svg xmlns="http://www.w3.org/2000/svg" viewBox="0 0 420 220" width="420" height="220" role="img" aria-label="Octagonal bezel screws: genuine all slots aligned vs replica random">
  <defs><filter id="sblur" x="-30%" y="-30%" width="160%" height="160%"><feGaussianBlur stdDeviation="1.2"/></filter></defs>
  <rect x="1" y="1" width="418" height="218" rx="14" fill="#0e1530" stroke="#27314f"/>
  <line x1="210" y1="22" x2="210" y2="198" stroke="#27314f" stroke-width="1.5" stroke-dasharray="5 5"/>

  <text x="105" y="34" text-anchor="middle" font-family="system-ui,-apple-system,Segoe UI,Arial,sans-serif" font-size="15" font-weight="700" fill="#34d399">&#10003; alineados / aligned</text>
  <polygon points="154.9,99.3 125.7,70.1 84.3,70.1 55.1,99.3 55.1,140.7 84.3,169.9 125.7,169.9 154.9,140.7" fill="#0b1b2e" stroke="#cbd5e1" stroke-width="2.5"/>
  <g stroke="#cbd5e1" stroke-width="2">
    <g fill="#16263b"><circle cx="143.8" cy="103.9" r="6.5"/><circle cx="121.1" cy="81.2" r="6.5"/><circle cx="88.9" cy="81.2" r="6.5"/><circle cx="66.2" cy="103.9" r="6.5"/><circle cx="66.2" cy="136.1" r="6.5"/><circle cx="88.9" cy="158.8" r="6.5"/><circle cx="121.1" cy="158.8" r="6.5"/><circle cx="143.8" cy="136.1" r="6.5"/></g>
    <g stroke-linecap="round"><line x1="143.8" y1="100" x2="143.8" y2="107.8"/><line x1="121.1" y1="77.3" x2="121.1" y2="85.1"/><line x1="88.9" y1="77.3" x2="88.9" y2="85.1"/><line x1="66.2" y1="100" x2="66.2" y2="107.8"/><line x1="66.2" y1="132.2" x2="66.2" y2="140"/><line x1="88.9" y1="154.9" x2="88.9" y2="162.7"/><line x1="121.1" y1="154.9" x2="121.1" y2="162.7"/><line x1="143.8" y1="132.2" x2="143.8" y2="140"/></g>
  </g>

  <text x="315" y="34" text-anchor="middle" font-family="system-ui,-apple-system,Segoe UI,Arial,sans-serif" font-size="15" font-weight="700" fill="#f87171">&#10007; al azar / random</text>
  <polygon points="364.9,99.3 335.7,70.1 294.3,70.1 265.1,99.3 265.1,140.7 294.3,169.9 335.7,169.9 364.9,140.7" fill="#0b1b2e" stroke="#94a3b8" stroke-width="2.5"/>
  <g stroke="#94a3b8" stroke-width="2" filter="url(#sblur)">
    <g fill="#16263b"><circle cx="353.8" cy="103.9" r="6.5"/><circle cx="331.1" cy="81.2" r="6.5"/><circle cx="298.9" cy="81.2" r="6.5"/><circle cx="276.2" cy="103.9" r="6.5"/><circle cx="276.2" cy="136.1" r="6.5"/><circle cx="298.9" cy="158.8" r="6.5"/><circle cx="331.1" cy="158.8" r="6.5"/><circle cx="353.8" cy="136.1" r="6.5"/></g>
    <g stroke-linecap="round">
      <line x1="350.4" y1="101.9" x2="357.2" y2="105.9"/><line x1="331.1" y1="77.3" x2="331.1" y2="85.1"/><line x1="295.5" y1="79.8" x2="302.3" y2="82.6"/><line x1="272.8" y1="105.9" x2="279.6" y2="101.9"/><line x1="276.2" y1="132.2" x2="276.2" y2="140"/><line x1="285.5" y1="158.8" x2="292.3" y2="158.8"/><line x1="327.7" y1="155.9" x2="334.5" y2="161.7"/><line x1="350.4" y1="138.1" x2="357.2" y2="134.1"/>
    </g>
  </g>

  <text x="210" y="212" text-anchor="middle" font-family="system-ui,-apple-system,Segoe UI,Arial,sans-serif" font-size="11" fill="#64748b">8 hex screws aligned / 8 tornillos alineados</text>
</svg>
