<svg xmlns="http://www.w3.org/2000/svg" viewBox="0 0 420 220" width="420" height="220" role="img" aria-label="Integrated bracelet: genuine aligned brushed/polished transitions vs replica misaligned">
  <defs>
    <linearGradient id="lnk" x1="0" y1="0" x2="0" y2="1"><stop offset="0%" stop-color="#c2ccda"/><stop offset="50%" stop-color="#8a97ab"/><stop offset="100%" stop-color="#5b6577"/></linearGradient>
    <filter id="tbblur" x="-20%" y="-20%" width="140%" height="140%"><feGaussianBlur stdDeviation="1.3"/></filter>
  </defs>
  <rect x="1" y="1" width="418" height="218" rx="14" fill="#0e1530" stroke="#27314f"/>
  <line x1="210" y1="22" x2="210" y2="198" stroke="#27314f" stroke-width="1.5" stroke-dasharray="5 5"/>

  <text x="105" y="36" text-anchor="middle" font-family="system-ui,-apple-system,Segoe UI,Arial,sans-serif" font-size="15" font-weight="700" fill="#34d399">&#10003; alineado / aligned</text>
  <g stroke="#3a4a6b" stroke-width="1.2">
    <rect x="50" y="58" width="110" height="24" rx="6" fill="url(#lnk)"/>
    <rect x="55" y="86" width="100" height="24" rx="6" fill="url(#lnk)"/>
    <rect x="60" y="114" width="90" height="24" rx="6" fill="url(#lnk)"/>
    <rect x="65" y="142" width="80" height="24" rx="6" fill="url(#lnk)"/>
  </g>
  <line x1="89" y1="56" x2="89" y2="168" stroke="#eef3fb" stroke-width="2"/>
  <line x1="121" y1="56" x2="121" y2="168" stroke="#eef3fb" stroke-width="2"/>

  <text x="315" y="36" text-anchor="middle" font-family="system-ui,-apple-system,Segoe UI,Arial,sans-serif" font-size="15" font-weight="700" fill="#f87171">&#10007; desalineado / off</text>
  <g stroke="#3a4a6b" stroke-width="1.2" filter="url(#tbblur)">
    <rect x="260" y="58" width="110" height="24" rx="6" fill="url(#lnk)"/>
    <rect x="266" y="86" width="100" height="24" rx="6" fill="url(#lnk)"/>
    <rect x="268" y="114" width="90" height="24" rx="6" fill="url(#lnk)"/>
    <rect x="274" y="142" width="80" height="24" rx="6" fill="url(#lnk)"/>
  </g>
  <g stroke="#cfd8e6" stroke-width="2" filter="url(#tbblur)">
    <line x1="296" y1="58" x2="296" y2="82"/><line x1="302" y1="86" x2="302" y2="110"/><line x1="293" y1="114" x2="293" y2="138"/><line x1="300" y1="142" x2="300" y2="166"/>
    <line x1="330" y1="58" x2="330" y2="82"/><line x1="336" y1="86" x2="336" y2="110"/><line x1="326" y1="114" x2="326" y2="138"/><line x1="333" y1="142" x2="333" y2="166"/>
  </g>

  <text x="210" y="206" text-anchor="middle" font-family="system-ui,-apple-system,Segoe UI,Arial,sans-serif" font-size="11" fill="#64748b">integrated bracelet · polished bevels aligned / biseles alineados</text>
</svg>
