<svg xmlns="http://www.w3.org/2000/svg" viewBox="0 0 420 220" width="420" height="220" role="img" aria-label="Santos exposed screws: genuine real aligned vs replica decorative random">
  <defs><filter id="ssblur" x="-30%" y="-30%" width="160%" height="160%"><feGaussianBlur stdDeviation="1.2"/></filter></defs>
  <rect x="1" y="1" width="418" height="218" rx="14" fill="#0e1530" stroke="#27314f"/>
  <line x1="210" y1="22" x2="210" y2="198" stroke="#27314f" stroke-width="1.5" stroke-dasharray="5 5"/>

  <text x="105" y="34" text-anchor="middle" font-family="system-ui,-apple-system,Segoe UI,Arial,sans-serif" font-size="15" font-weight="700" fill="#34d399">&#10003; reales / aligned</text>
  <rect x="62" y="76" width="86" height="86" rx="20" fill="#0b1b2e" stroke="#cbd5e1" stroke-width="2.5"/>
  <rect x="80" y="94" width="50" height="50" rx="10" fill="none" stroke="#2b3658" stroke-width="1.5"/>
  <g stroke="#cbd5e1" stroke-width="2" fill="#16263b">
    <g><circle cx="80" cy="94" r="6"/><line x1="80" y1="90.2" x2="80" y2="97.8" stroke-linecap="round"/></g>
    <g><circle cx="130" cy="94" r="6"/><line x1="130" y1="90.2" x2="130" y2="97.8" stroke-linecap="round"/></g>
    <g><circle cx="130" cy="144" r="6"/><line x1="130" y1="140.2" x2="130" y2="147.8" stroke-linecap="round"/></g>
    <g><circle cx="80" cy="144" r="6"/><line x1="80" y1="140.2" x2="80" y2="147.8" stroke-linecap="round"/></g>
    <g><circle cx="105" cy="80" r="5"/><line x1="105" y1="76.8" x2="105" y2="83.2" stroke-linecap="round"/></g>
    <g><circle cx="105" cy="158" r="5"/><line x1="105" y1="154.8" x2="105" y2="161.2" stroke-linecap="round"/></g>
  </g>

  <text x="315" y="34" text-anchor="middle" font-family="system-ui,-apple-system,Segoe UI,Arial,sans-serif" font-size="15" font-weight="700" fill="#f87171">&#10007; al azar / random</text>
  <rect x="272" y="76" width="86" height="86" rx="20" fill="#0b1b2e" stroke="#94a3b8" stroke-width="2.5"/>
  <rect x="290" y="94" width="50" height="50" rx="10" fill="none" stroke="#2b3658" stroke-width="1.5"/>
  <g stroke="#94a3b8" stroke-width="2" fill="#16263b" filter="url(#ssblur)">
    <g><circle cx="290" cy="94" r="6"/><line x1="286.6" y1="91.8" x2="293.4" y2="96.2" stroke-linecap="round"/></g>
    <g><circle cx="340" cy="94" r="6"/><line x1="340" y1="90.2" x2="340" y2="97.8" stroke-linecap="round"/></g>
    <g><circle cx="340" cy="144" r="6"/><line x1="336.6" y1="144" x2="343.4" y2="144" stroke-linecap="round"/></g>
    <g><circle cx="290" cy="144" r="6"/><line x1="287.8" y1="140.6" x2="292.2" y2="147.4" stroke-linecap="round"/></g>
    <g><circle cx="315" cy="80" r="5"/><line x1="311.8" y1="81.5" x2="318.2" y2="78.5" stroke-linecap="round"/></g>
    <g><circle cx="315" cy="158" r="5"/><line x1="315" y1="154.8" x2="315" y2="161.2" stroke-linecap="round"/></g>
  </g>

  <text x="210" y="212" text-anchor="middle" font-family="system-ui,-apple-system,Segoe UI,Arial,sans-serif" font-size="11" fill="#64748b">Santos exposed screws / tornillos vistos (ranuras alineadas)</text>
</svg>
