<svg xmlns="http://www.w3.org/2000/svg" viewBox="0 0 420 220" width="420" height="220" role="img" aria-label="Aquanaut Tropical strap: genuine crisp embossed pattern vs replica shallow">
  <defs>
    <pattern id="aqF" width="22" height="22" patternUnits="userSpaceOnUse">
      <rect width="22" height="22" fill="#13233a"/>
      <rect x="3" y="3" width="16" height="16" rx="5" fill="#1c3350"/>
      <rect x="3" y="3" width="16" height="16" rx="5" fill="none" stroke="#3f6493" stroke-width="1.4"/>
      <rect x="3.8" y="3.8" width="14.4" height="14.4" rx="4" fill="none" stroke="#0a1626" stroke-width="1"/>
    </pattern>
    <pattern id="aqC" width="26" height="26" patternUnits="userSpaceOnUse">
      <rect width="26" height="26" fill="#16263b"/>
      <rect x="4" y="4" width="18" height="18" rx="6" fill="none" stroke="#3a4a60" stroke-width="2"/>
    </pattern>
    <clipPath id="stL"><rect x="58" y="58" width="94" height="108" rx="18"/></clipPath>
    <clipPath id="stR"><rect x="268" y="58" width="94" height="108" rx="18"/></clipPath>
    <filter id="stblur" x="-20%" y="-20%" width="140%" height="140%"><feGaussianBlur stdDeviation="1.6"/></filter>
  </defs>
  <rect x="1" y="1" width="418" height="218" rx="14" fill="#0e1530" stroke="#27314f"/>
  <line x1="210" y1="22" x2="210" y2="198" stroke="#27314f" stroke-width="1.5" stroke-dasharray="5 5"/>

  <text x="105" y="36" text-anchor="middle" font-family="system-ui,-apple-system,Segoe UI,Arial,sans-serif" font-size="15" font-weight="700" fill="#34d399">&#10003; relieve nítido / crisp</text>
  <rect x="58" y="58" width="94" height="108" rx="18" clip-path="url(#stL)" fill="url(#aqF)"/>
  <rect x="58" y="58" width="94" height="108" rx="18" fill="none" stroke="#3a4a6b" stroke-width="2"/>

  <text x="315" y="36" text-anchor="middle" font-family="system-ui,-apple-system,Segoe UI,Arial,sans-serif" font-size="15" font-weight="700" fill="#f87171">&#10007; superficial / shallow</text>
  <rect x="268" y="58" width="94" height="108" rx="18" clip-path="url(#stR)" fill="url(#aqC)" filter="url(#stblur)"/>
  <rect x="268" y="58" width="94" height="108" rx="18" fill="none" stroke="#3a4a6b" stroke-width="2"/>

  <text x="210" y="186" text-anchor="middle" font-family="system-ui,-apple-system,Segoe UI,Arial,sans-serif" font-size="11" fill="#64748b">Aquanaut "Tropical" strap · embossed pattern matches the dial</text>
</svg>
